<?xml version="1.0" standalone="no"?>
<svg viewBox="0 0 200 200" xmlns="http://www.w3.org/2000/svg">
  <path fill="#6ef3d6" d="M35.1,-59.4C43.7,-55.8,47.8,-42.9,57.5,-31.4C67.2,-19.9,82.6,-10,87.6,2.9C92.6,15.7,87.1,31.5,77.4,42.9C67.7,54.4,53.7,61.5,40.1,66.2C26.4,70.9,13.2,73.1,2.1,69.4C-9,65.7,-18,56.2,-28.4,49.7C-38.9,43.2,-50.8,39.7,-56.2,31.9C-61.7,24.1,-60.8,12.1,-57.9,1.6C-55.1,-8.8,-50.3,-17.5,-47.5,-29.8C-44.6,-42.1,-43.6,-57.9,-36,-62C-28.4,-66.2,-14.2,-58.7,-0.5,-57.9C13.2,-57.1,26.5,-62.9,35.1,-59.4Z" transform="translate(100 100)" />
</svg>
