<?xml version="1.0" standalone="no"?>
<svg viewBox="0 0 200 200" xmlns="http://www.w3.org/2000/svg">
  <path fill="#6ef3d6" d="M39.7,-76.1C47.6,-64.2,47.5,-45.8,56.1,-32C64.8,-18.2,82.1,-9.1,83.9,1C85.7,11.2,72,22.4,61.7,33.4C51.5,44.3,44.7,55.1,35,64.8C25.3,74.6,12.7,83.4,-0.8,84.7C-14.2,86,-28.3,79.8,-42.4,72.5C-56.4,65.3,-70.2,56.9,-79.1,44.6C-88,32.4,-91.8,16.2,-91.4,0.2C-91,-15.7,-86.3,-31.4,-78.1,-44.8C-69.8,-58.2,-58.1,-69.2,-44.5,-77.8C-30.9,-86.3,-15.4,-92.4,0.2,-92.8C15.9,-93.2,31.8,-87.9,39.7,-76.1Z" transform="translate(100 100)" />
</svg>
