<?xml version="1.0" standalone="no"?>
<svg viewBox="0 0 200 200" xmlns="http://www.w3.org/2000/svg">
  <path fill="#6ef3d617" d="M39.5,-67.8C48.9,-63,52.7,-47.8,55.1,-34.8C57.5,-21.7,58.5,-10.9,58.5,0C58.6,10.9,57.6,21.8,52.1,29.4C46.5,36.9,36.3,41.1,26.9,45.3C17.4,49.5,8.7,53.8,-3.2,59.4C-15.2,65,-30.4,72,-43.1,69.6C-55.8,67.3,-66,55.6,-67,42.5C-68.1,29.3,-60,14.7,-61.3,-0.7C-62.6,-16.1,-73.3,-32.3,-69.8,-41.3C-66.3,-50.2,-48.7,-52,-34.7,-54.1C-20.7,-56.3,-10.3,-58.9,2.3,-63C15,-67.1,30.1,-72.6,39.5,-67.8Z" transform="translate(100 100)" />
</svg>
